<svg width="1920" height="1080" viewBox="0 0 1920 1080" fill="none" xmlns="http://www.w3.org/2000/svg">
<path d="M1817.05 434.979C1817.05 434.979 1739.69 278.69 1537.12 465.936L1215.41 660.688L1386.08 911.9L1661.03 757.021C1910.65 586.815 1817.05 434.979 1817.05 434.979Z" fill="#E2F1FE" stroke="black" stroke-width="10"/>
<path d="M592.672 955.811C251.793 791.436 451.3 487.472 451.3 487.472C353.529 143.067 385.678 44.7898 423.554 38.7018C480.631 2.17403 656.091 123.933 724.796 187.422C858.24 132.63 1164.33 158.722 1257.25 187.422C1396.78 42.3546 1528.99 26.5259 1561.14 38.7018C1561.14 38.7018 1661.55 122.194 1514.9 487.472C1759.32 804.481 1431.66 955.811 1431.66 955.811C993.007 1163.24 592.672 955.811 592.672 955.811Z" fill="#E2F1FE" stroke="black" stroke-width="10"/>
<ellipse cx="563.605" cy="705.334" rx="73.9892" ry="73.0556" fill="#ABD3F8"/>
<ellipse cx="1406.55" cy="697.507" rx="73.9892" ry="73.0556" fill="#ABD3F8"/>
<path d="M434.124 752.492C428.839 749.883 375.989 727.706 302 770.756" stroke="black" stroke-width="8" stroke-linecap="round" stroke-linejoin="round"/>
<path d="M1525.46 719.623C1548.81 703.968 1607.38 677.355 1654.95 696.141" stroke="black" stroke-width="8" stroke-linecap="round" stroke-linejoin="round"/>
<path d="M1525.46 754.209C1553.65 747.687 1619.01 743.251 1654.95 777.692" stroke="black" stroke-width="8" stroke-linecap="round" stroke-linejoin="round"/>
<path d="M664.078 221.341C536.26 284.119 504.712 361.974 489.616 405.284C426.196 136.544 472.44 107.844 472.44 107.844C472.44 107.844 489.616 73.9251 664.078 221.341Z" fill="#ABD3F8" stroke="#99CEFF" stroke-width="2"/>
<ellipse cx="640.237" cy="608.797" rx="84.5591" ry="83.4921" fill="black"/>
<path d="M592.672 697.507L545.107 744.471" stroke="#0095E9" stroke-width="3"/>
<path d="M431.481 719.623C408.139 703.968 349.565 669.589 302 688.375" stroke="black" stroke-width="8" stroke-linecap="round" stroke-linejoin="round"/>
<path d="M1398.63 666.197L1438.26 697.507" stroke="#0095E9" stroke-width="3"/>
<ellipse cx="1327.28" cy="608.797" rx="84.5591" ry="83.4921" fill="black"/>
<path d="M1374.84 692.289L1427.69 734.035" stroke="#0095E9" stroke-width="3"/>
<path d="M568.89 674.025L526.61 710.553" stroke="#0095E9" stroke-width="3"/>
<path d="M995.556 721.481L966.488 674.517H1029.91L995.556 721.481Z" fill="black"/>
<path d="M992.326 694.622C998.093 712.819 1004.51 740.393 1054.5 734.668" stroke="black" stroke-width="5"/>
<path d="M940.064 735.428C965.167 741.05 998.223 727.772 997.292 690.878" stroke="black" stroke-width="5"/>
<path d="M1316.71 223.95C1443.55 313.965 1452.59 354.845 1468.65 394.848C1558.5 174.376 1509.61 107.844 1509.61 107.844C1509.61 107.844 1442.23 94.7315 1316.71 223.95Z" fill="#ABD3F8" stroke="#99CEFF" stroke-width="2"/>
<path d="M996.637 764.723C993.322 758.393 970.86 763.14 960.044 766.305C975.753 807.087 1002.22 838.155 1030.02 764.723C1018.95 755.227 1003.15 760.766 996.637 764.723Z" fill="#ABD3F8"/>
<path d="M951.038 737.819C953.396 747.062 956.436 756.94 960.044 766.305M1038.87 737.819C1035.92 748.03 1032.96 756.96 1030.02 764.723M960.044 766.305C970.86 763.14 993.322 758.393 996.637 764.723C1003.15 760.766 1018.95 755.227 1030.02 764.723M960.044 766.305C975.753 807.087 1002.22 838.155 1030.02 764.723" stroke="black" stroke-width="5"/>
<path d="M993.988 721.481L964.921 674.517H1028.34L993.988 721.481Z" fill="black"/>
<path d="M990.758 694.621C996.525 712.819 1002.94 740.392 1052.93 734.668" stroke="black" stroke-width="5"/>
<path d="M938.496 735.428C963.6 741.05 996.655 727.771 995.725 690.878" stroke="black" stroke-width="5"/>
<ellipse cx="673.571" cy="561.622" rx="25.1035" ry="24.7867" fill="white"/>
<ellipse cx="1363.26" cy="561.622" rx="25.1035" ry="24.7867" fill="white"/>
</svg>
